<svg id="anime" width="1113" height="187" viewBox="0 0 1113 187" fill="none" xmlns="http://www.w3.org/2000/svg">
<mask id="path-1-outside-1_1_5" maskUnits="userSpaceOnUse" x="0.400024" y="0" width="1113" height="187" fill="black">
<rect fill="white" x="0.400024" width="1113" height="187"/>
<path d="M112.8 13.6V153H94.6V89.8H23.6V153H5.40002V13.6H23.6V74.8H94.6V13.6H112.8Z"/>
<path d="M243.877 94C243.877 97.4667 243.677 101.133 243.277 105H155.677C156.343 115.8 160.01 124.267 166.677 130.4C173.477 136.4 181.677 139.4 191.277 139.4C199.143 139.4 205.677 137.6 210.877 134C216.21 130.267 219.943 125.333 222.077 119.2H241.677C238.743 129.733 232.877 138.333 224.077 145C215.277 151.533 204.343 154.8 191.277 154.8C180.877 154.8 171.543 152.467 163.277 147.8C155.143 143.133 148.743 136.533 144.077 128C139.41 119.333 137.077 109.333 137.077 98C137.077 86.6667 139.343 76.7333 143.877 68.2C148.41 59.6667 154.743 53.1333 162.877 48.6C171.143 43.9333 180.61 41.6 191.277 41.6C201.677 41.6 210.877 43.8667 218.877 48.4C226.877 52.9333 233.01 59.2 237.277 67.2C241.677 75.0667 243.877 84 243.877 94ZM225.077 90.2C225.077 83.2667 223.543 77.3333 220.477 72.4C217.41 67.3333 213.21 63.5333 207.877 61C202.677 58.3333 196.877 57 190.477 57C181.277 57 173.41 59.9333 166.877 65.8C160.477 71.6667 156.81 79.8 155.877 90.2H225.077Z"/>
<path d="M286.1 5V153H267.9V5H286.1Z"/>
<path d="M335.319 5V153H317.119V5H335.319Z"/>
<path d="M414.138 154.8C403.871 154.8 394.538 152.467 386.138 147.8C377.871 143.133 371.338 136.533 366.538 128C361.871 119.333 359.538 109.333 359.538 98C359.538 86.8 361.938 76.9333 366.738 68.4C371.671 59.7333 378.338 53.1333 386.738 48.6C395.138 43.9333 404.538 41.6 414.938 41.6C425.338 41.6 434.738 43.9333 443.138 48.6C451.538 53.1333 458.138 59.6667 462.938 68.2C467.871 76.7333 470.338 86.6667 470.338 98C470.338 109.333 467.804 119.333 462.738 128C457.804 136.533 451.071 143.133 442.538 147.8C434.004 152.467 424.538 154.8 414.138 154.8ZM414.138 138.8C420.671 138.8 426.804 137.267 432.538 134.2C438.271 131.133 442.871 126.533 446.338 120.4C449.938 114.267 451.738 106.8 451.738 98C451.738 89.2 450.004 81.7333 446.538 75.6C443.071 69.4667 438.538 64.9333 432.938 62C427.338 58.9333 421.271 57.4 414.738 57.4C408.071 57.4 401.938 58.9333 396.338 62C390.871 64.9333 386.471 69.4667 383.138 75.6C379.804 81.7333 378.138 89.2 378.138 98C378.138 106.933 379.738 114.467 382.938 120.6C386.271 126.733 390.671 131.333 396.138 134.4C401.604 137.333 407.604 138.8 414.138 138.8Z"/>
<path d="M513.067 127.8L490.667 181.6H478.467L493.067 127.8H513.067Z"/>
<path d="M733.236 43.4L699.036 153H680.236L653.836 66L627.436 153H608.636L574.236 43.4H592.836L618.036 135.4L645.236 43.4H663.836L690.436 135.6L715.236 43.4H733.236Z"/>
<path d="M799.098 154.8C788.832 154.8 779.498 152.467 771.098 147.8C762.832 143.133 756.298 136.533 751.498 128C746.832 119.333 744.498 109.333 744.498 98C744.498 86.8 746.898 76.9333 751.698 68.4C756.632 59.7333 763.298 53.1333 771.698 48.6C780.098 43.9333 789.498 41.6 799.898 41.6C810.298 41.6 819.698 43.9333 828.098 48.6C836.498 53.1333 843.098 59.6667 847.898 68.2C852.832 76.7333 855.298 86.6667 855.298 98C855.298 109.333 852.765 119.333 847.698 128C842.765 136.533 836.032 143.133 827.498 147.8C818.965 152.467 809.498 154.8 799.098 154.8ZM799.098 138.8C805.632 138.8 811.765 137.267 817.498 134.2C823.232 131.133 827.832 126.533 831.298 120.4C834.898 114.267 836.698 106.8 836.698 98C836.698 89.2 834.965 81.7333 831.498 75.6C828.032 69.4667 823.498 64.9333 817.898 62C812.298 58.9333 806.232 57.4 799.698 57.4C793.032 57.4 786.898 58.9333 781.298 62C775.832 64.9333 771.432 69.4667 768.098 75.6C764.765 81.7333 763.098 89.2 763.098 98C763.098 106.933 764.698 114.467 767.898 120.6C771.232 126.733 775.632 131.333 781.098 134.4C786.565 137.333 792.565 138.8 799.098 138.8Z"/>
<path d="M897.428 61.2C900.628 54.9333 905.161 50.0667 911.028 46.6C917.028 43.1333 924.295 41.4 932.828 41.4V60.2H928.028C907.628 60.2 897.428 71.2667 897.428 93.4V153H879.228V43.4H897.428V61.2Z"/>
<path d="M972.037 5V153H953.838V5H972.037Z"/>
<path d="M996.256 97.8C996.256 86.6 998.523 76.8 1003.06 68.4C1007.59 59.8667 1013.79 53.2667 1021.66 48.6C1029.66 43.9333 1038.59 41.6 1048.46 41.6C1056.99 41.6 1064.92 43.6 1072.26 47.6C1079.59 51.4667 1085.19 56.6 1089.06 63V5H1107.46V153H1089.06V132.4C1085.46 138.933 1080.12 144.333 1073.06 148.6C1065.99 152.733 1057.72 154.8 1048.26 154.8C1038.52 154.8 1029.66 152.4 1021.66 147.6C1013.79 142.8 1007.59 136.067 1003.06 127.4C998.523 118.733 996.256 108.867 996.256 97.8ZM1089.06 98C1089.06 89.7333 1087.39 82.5333 1084.06 76.4C1080.72 70.2667 1076.19 65.6 1070.46 62.4C1064.86 59.0667 1058.66 57.4 1051.86 57.4C1045.06 57.4 1038.86 59 1033.26 62.2C1027.66 65.4 1023.19 70.0667 1019.86 76.2C1016.52 82.3333 1014.86 89.5333 1014.86 97.8C1014.86 106.2 1016.52 113.533 1019.86 119.8C1023.19 125.933 1027.66 130.667 1033.26 134C1038.86 137.2 1045.06 138.8 1051.86 138.8C1058.66 138.8 1064.86 137.2 1070.46 134C1076.19 130.667 1080.72 125.933 1084.06 119.8C1087.39 113.533 1089.06 106.267 1089.06 98Z"/>
</mask>
<path d="M112.8 13.6V153H94.6V89.8H23.6V153H5.40002V13.6H23.6V74.8H94.6V13.6H112.8Z" stroke="white" stroke-width="10" mask="url(#path-1-outside-1_1_5)"/>
<path d="M243.877 94C243.877 97.4667 243.677 101.133 243.277 105H155.677C156.343 115.8 160.01 124.267 166.677 130.4C173.477 136.4 181.677 139.4 191.277 139.4C199.143 139.4 205.677 137.6 210.877 134C216.21 130.267 219.943 125.333 222.077 119.2H241.677C238.743 129.733 232.877 138.333 224.077 145C215.277 151.533 204.343 154.8 191.277 154.8C180.877 154.8 171.543 152.467 163.277 147.8C155.143 143.133 148.743 136.533 144.077 128C139.41 119.333 137.077 109.333 137.077 98C137.077 86.6667 139.343 76.7333 143.877 68.2C148.41 59.6667 154.743 53.1333 162.877 48.6C171.143 43.9333 180.61 41.6 191.277 41.6C201.677 41.6 210.877 43.8667 218.877 48.4C226.877 52.9333 233.01 59.2 237.277 67.2C241.677 75.0667 243.877 84 243.877 94ZM225.077 90.2C225.077 83.2667 223.543 77.3333 220.477 72.4C217.41 67.3333 213.21 63.5333 207.877 61C202.677 58.3333 196.877 57 190.477 57C181.277 57 173.41 59.9333 166.877 65.8C160.477 71.6667 156.81 79.8 155.877 90.2H225.077Z" stroke="white" stroke-width="10" mask="url(#path-1-outside-1_1_5)"/>
<path d="M286.1 5V153H267.9V5H286.1Z" stroke="white" stroke-width="10" mask="url(#path-1-outside-1_1_5)"/>
<path d="M335.319 5V153H317.119V5H335.319Z" stroke="white" stroke-width="10" mask="url(#path-1-outside-1_1_5)"/>
<path d="M414.138 154.8C403.871 154.8 394.538 152.467 386.138 147.8C377.871 143.133 371.338 136.533 366.538 128C361.871 119.333 359.538 109.333 359.538 98C359.538 86.8 361.938 76.9333 366.738 68.4C371.671 59.7333 378.338 53.1333 386.738 48.6C395.138 43.9333 404.538 41.6 414.938 41.6C425.338 41.6 434.738 43.9333 443.138 48.6C451.538 53.1333 458.138 59.6667 462.938 68.2C467.871 76.7333 470.338 86.6667 470.338 98C470.338 109.333 467.804 119.333 462.738 128C457.804 136.533 451.071 143.133 442.538 147.8C434.004 152.467 424.538 154.8 414.138 154.8ZM414.138 138.8C420.671 138.8 426.804 137.267 432.538 134.2C438.271 131.133 442.871 126.533 446.338 120.4C449.938 114.267 451.738 106.8 451.738 98C451.738 89.2 450.004 81.7333 446.538 75.6C443.071 69.4667 438.538 64.9333 432.938 62C427.338 58.9333 421.271 57.4 414.738 57.4C408.071 57.4 401.938 58.9333 396.338 62C390.871 64.9333 386.471 69.4667 383.138 75.6C379.804 81.7333 378.138 89.2 378.138 98C378.138 106.933 379.738 114.467 382.938 120.6C386.271 126.733 390.671 131.333 396.138 134.4C401.604 137.333 407.604 138.8 414.138 138.8Z" stroke="white" stroke-width="10" mask="url(#path-1-outside-1_1_5)"/>
<path d="M513.067 127.8L490.667 181.6H478.467L493.067 127.8H513.067Z" stroke="white" stroke-width="10" mask="url(#path-1-outside-1_1_5)"/>
<path d="M733.236 43.4L699.036 153H680.236L653.836 66L627.436 153H608.636L574.236 43.4H592.836L618.036 135.4L645.236 43.4H663.836L690.436 135.6L715.236 43.4H733.236Z" stroke="white" stroke-width="10" mask="url(#path-1-outside-1_1_5)"/>
<path d="M799.098 154.8C788.832 154.8 779.498 152.467 771.098 147.8C762.832 143.133 756.298 136.533 751.498 128C746.832 119.333 744.498 109.333 744.498 98C744.498 86.8 746.898 76.9333 751.698 68.4C756.632 59.7333 763.298 53.1333 771.698 48.6C780.098 43.9333 789.498 41.6 799.898 41.6C810.298 41.6 819.698 43.9333 828.098 48.6C836.498 53.1333 843.098 59.6667 847.898 68.2C852.832 76.7333 855.298 86.6667 855.298 98C855.298 109.333 852.765 119.333 847.698 128C842.765 136.533 836.032 143.133 827.498 147.8C818.965 152.467 809.498 154.8 799.098 154.8ZM799.098 138.8C805.632 138.8 811.765 137.267 817.498 134.2C823.232 131.133 827.832 126.533 831.298 120.4C834.898 114.267 836.698 106.8 836.698 98C836.698 89.2 834.965 81.7333 831.498 75.6C828.032 69.4667 823.498 64.9333 817.898 62C812.298 58.9333 806.232 57.4 799.698 57.4C793.032 57.4 786.898 58.9333 781.298 62C775.832 64.9333 771.432 69.4667 768.098 75.6C764.765 81.7333 763.098 89.2 763.098 98C763.098 106.933 764.698 114.467 767.898 120.6C771.232 126.733 775.632 131.333 781.098 134.4C786.565 137.333 792.565 138.8 799.098 138.8Z" stroke="white" stroke-width="10" mask="url(#path-1-outside-1_1_5)"/>
<path d="M897.428 61.2C900.628 54.9333 905.161 50.0667 911.028 46.6C917.028 43.1333 924.295 41.4 932.828 41.4V60.2H928.028C907.628 60.2 897.428 71.2667 897.428 93.4V153H879.228V43.4H897.428V61.2Z" stroke="white" stroke-width="10" mask="url(#path-1-outside-1_1_5)"/>
<path d="M972.037 5V153H953.838V5H972.037Z" stroke="white" stroke-width="10" mask="url(#path-1-outside-1_1_5)"/>
<path d="M996.256 97.8C996.256 86.6 998.523 76.8 1003.06 68.4C1007.59 59.8667 1013.79 53.2667 1021.66 48.6C1029.66 43.9333 1038.59 41.6 1048.46 41.6C1056.99 41.6 1064.92 43.6 1072.26 47.6C1079.59 51.4667 1085.19 56.6 1089.06 63V5H1107.46V153H1089.06V132.4C1085.46 138.933 1080.12 144.333 1073.06 148.6C1065.99 152.733 1057.72 154.8 1048.26 154.8C1038.52 154.8 1029.66 152.4 1021.66 147.6C1013.79 142.8 1007.59 136.067 1003.06 127.4C998.523 118.733 996.256 108.867 996.256 97.8ZM1089.06 98C1089.06 89.7333 1087.39 82.5333 1084.06 76.4C1080.72 70.2667 1076.19 65.6 1070.46 62.4C1064.86 59.0667 1058.66 57.4 1051.86 57.4C1045.06 57.4 1038.86 59 1033.26 62.2C1027.66 65.4 1023.19 70.0667 1019.86 76.2C1016.52 82.3333 1014.86 89.5333 1014.86 97.8C1014.86 106.2 1016.52 113.533 1019.86 119.8C1023.19 125.933 1027.66 130.667 1033.26 134C1038.86 137.2 1045.06 138.8 1051.86 138.8C1058.66 138.8 1064.86 137.2 1070.46 134C1076.19 130.667 1080.72 125.933 1084.06 119.8C1087.39 113.533 1089.06 106.267 1089.06 98Z" stroke="white" stroke-width="10" mask="url(#path-1-outside-1_1_5)"/>
</svg>