<?xml version="1.0" standalone="no"?>
<!DOCTYPE svg PUBLIC "-//W3C//DTD SVG 20010904//EN"
 "http://www.w3.org/TR/2001/REC-SVG-20010904/DTD/svg10.dtd">
<svg version="1.0" xmlns="http://www.w3.org/2000/svg"
 width="1001.000000pt" height="1500.000000pt" viewBox="0 0 1001.000000 1500.000000"
 preserveAspectRatio="xMidYMid meet">
<metadata>
Created by potrace 1.16, written by Peter Selinger 2001-2019
</metadata>
<g transform="translate(0.000000,1500.000000) scale(0.100000,-0.100000)"
fill="#000000" stroke="none">
<path d="M0 7500 l0 -7500 5005 0 5005 0 0 1645 0 1645 -889 0 -888 0 -34 88
c-18 48 -38 96 -45 107 -7 11 -21 43 -32 70 -11 28 -33 79 -49 115 -38 85
-114 260 -123 285 -4 11 -13 33 -19 48 -20 51 -15 56 96 108 148 69 156 72
263 115 81 31 286 144 370 203 14 10 52 32 85 50 33 17 85 49 115 70 211 150
295 202 450 275 142 67 176 88 285 179 55 45 131 104 170 130 73 51 204 117
230 117 13 0 15 67 15 588 l0 589 -102 7 c-57 3 -213 13 -348 21 -227 14 -294
21 -312 32 -10 5 60 101 86 118 18 12 52 12 221 0 183 -13 366 -35 430 -51 22
-5 25 -3 25 19 0 22 -5 25 -57 30 -32 4 -94 11 -138 17 -44 5 -134 15 -200 20
-181 15 -215 21 -215 34 0 7 69 82 153 167 132 134 155 161 167 202 17 61 2
115 -40 151 -27 22 -30 29 -24 65 11 69 -3 110 -53 158 -43 40 -50 43 -102 43
-49 0 -58 3 -66 23 -6 12 -25 29 -42 38 -18 9 -39 21 -46 27 -7 6 -23 9 -34 6
-12 -3 -29 -2 -38 4 -15 8 -14 10 11 18 27 7 25 8 -21 14 -41 4 -50 9 -50 24
0 11 -7 22 -15 24 -8 3 -19 11 -23 18 -4 8 -15 14 -22 14 -9 0 -16 10 -16 23
-4 75 -22 136 -46 150 -7 4 -13 26 -13 47 0 29 -8 48 -29 72 -43 49 -44 72 -4
76 28 3 35 -2 60 -40 15 -24 31 -50 34 -58 5 -11 25 -15 82 -16 74 -1 76 -1
81 25 8 39 5 111 -5 111 -5 0 -9 -7 -9 -16 0 -9 -6 -14 -12 -11 -9 2 -12 19
-10 45 2 23 -1 49 -6 58 -8 14 -11 11 -20 -15 -16 -46 -42 -41 -42 9 0 33 3
40 20 40 30 0 25 28 -21 114 -36 69 -45 91 -48 119 -1 4 -8 7 -16 7 -8 0 -15
5 -15 10 0 6 -11 27 -24 48 -14 20 -34 66 -46 101 -12 36 -36 84 -53 109 -37
51 -30 61 48 62 28 1 109 2 180 4 72 1 277 3 458 4 l327 2 0 1166 0 1166 -32
-6 c-73 -15 -200 -18 -264 -7 -85 14 -184 48 -204 70 -8 9 -35 28 -60 43 -25
15 -53 36 -62 47 -10 12 -26 21 -36 21 -11 0 -26 8 -35 18 -9 9 -49 28 -89 41
-40 13 -89 31 -108 39 -26 12 -72 16 -175 15 -131 0 -144 -1 -195 -26 -79 -38
-135 -80 -138 -104 -2 -11 -13 -25 -25 -30 -22 -10 -35 -44 -60 -153 -5 -25
-9 -87 -8 -139 l2 -93 -28 6 c-15 4 -32 13 -37 20 -8 12 -14 11 -35 -2 -19
-13 -25 -14 -29 -4 -2 7 -17 27 -33 45 -17 18 -40 53 -52 79 -12 26 -29 50
-37 53 -18 6 -52 63 -45 75 3 5 47 18 98 30 126 29 123 27 135 54 7 15 23 27
44 31 42 9 65 30 73 66 4 16 13 32 20 36 16 10 125 224 125 247 0 15 58 16
645 16 l645 0 0 1715 0 1715 -5005 0 -5005 0 0 -7500z m856 4042 c-8 -16 -33
-41 -55 -57 -23 -15 -50 -43 -62 -61 -11 -19 -26 -37 -32 -41 -7 -5 -33 -40
-60 -79 -26 -40 -58 -83 -70 -96 -13 -14 -34 -49 -46 -79 -55 -126 -76 -166
-107 -203 -19 -22 -34 -47 -34 -57 0 -31 -12 -49 -32 -49 -13 0 -18 -5 -15
-14 7 -18 -109 -36 -233 -36 l-90 0 0 400 0 400 425 0 426 0 -15 -28z m984 11
c0 -23 37 -84 62 -102 35 -24 100 -101 165 -196 16 -22 36 -47 46 -57 9 -10
17 -22 17 -27 0 -5 15 -28 34 -50 19 -23 37 -55 41 -71 4 -17 15 -35 26 -40
17 -9 19 -22 18 -103 0 -51 -3 -102 -6 -114 l-5 -23 -733 0 c-659 0 -733 2
-739 16 -3 9 -6 59 -6 113 0 82 4 105 24 147 13 27 30 70 37 94 15 52 60 123
101 162 15 15 28 36 28 48 0 12 9 24 24 30 13 5 27 18 31 29 3 11 32 44 64 73
32 29 60 61 64 71 6 16 32 17 357 17 327 0 350 -1 350 -17z m519 -15 c6 -18
41 -66 79 -106 37 -41 77 -87 90 -103 31 -39 136 -107 268 -174 66 -33 347
-17 380 22 6 7 17 13 25 13 8 0 39 15 70 34 31 19 66 37 78 41 11 3 21 13 21
20 0 8 9 19 20 25 32 17 203 197 219 231 l15 29 1463 0 c805 0 1463 -3 1463
-7 -1 -5 -13 -24 -28 -44 -15 -21 -40 -56 -57 -80 -16 -23 -48 -61 -70 -84
-23 -23 -46 -59 -53 -83 l-13 -42 -77 -1 c-42 -1 -91 -1 -107 0 -18 1 -44 -7
-65 -22 l-35 -23 -28 20 c-40 30 -251 36 -329 10 -69 -22 -71 -23 -57 -40 19
-23 -11 -18 -36 6 -32 30 -126 42 -330 43 -155 1 -186 -2 -221 -18 -33 -15
-40 -22 -36 -39 5 -17 0 -15 -24 10 -32 35 -51 41 -169 55 -111 14 -189 4
-252 -31 l-52 -29 -20 27 -19 27 -144 0 c-98 -1 -150 -5 -166 -14 -20 -10 -29
-10 -55 1 -21 8 -75 13 -154 13 -106 0 -125 -3 -150 -21 -26 -19 -29 -19 -45
-3 -30 32 -263 38 -318 9 -11 -6 -22 -23 -25 -38 -4 -15 -10 -35 -16 -44 -7
-14 -5 -18 6 -18 18 0 21 -45 4 -56 -8 -5 -8 -9 1 -14 13 -8 25 -230 13 -230
-4 0 -16 9 -28 20 -20 18 -23 19 -35 5 -7 -8 -20 -15 -29 -15 -9 -1 -34 -8
-56 -16 -22 -8 -53 -17 -70 -19 -16 -2 -52 -6 -80 -10 -61 -9 -52 -9 -155 0
-117 10 -221 11 -226 3 -3 -4 -16 -3 -30 2 -13 5 -28 9 -32 9 -29 -5 -42 6
-58 48 -10 26 -32 67 -49 92 -17 25 -39 67 -48 92 -10 25 -32 64 -50 85 -51
62 -91 117 -105 144 -7 14 -76 90 -152 169 -77 79 -140 146 -140 148 0 1 60 3
134 3 l134 0 11 -32z m1001 24 c0 -12 -50 -56 -95 -84 -22 -14 -55 -39 -74
-57 -18 -17 -44 -31 -56 -31 -13 0 -52 -7 -87 -15 -86 -20 -221 1 -282 42 -56
38 -156 114 -156 118 0 2 -3 10 -6 19 -6 14 32 16 375 16 210 0 381 -4 381 -8z
m4430 -73 c19 -44 45 -88 58 -96 12 -8 22 -20 22 -27 0 -6 10 -22 23 -36 12
-14 35 -43 51 -65 17 -22 34 -43 38 -46 5 -3 1 -12 -8 -20 -11 -9 -44 -14 -95
-15 -54 -1 -84 -7 -101 -18 -12 -9 -46 -23 -75 -32 -28 -8 -57 -21 -63 -29 -7
-8 -21 -15 -30 -15 -10 0 -51 -33 -92 -72 -40 -40 -84 -80 -98 -89 -14 -9 -37
-40 -50 -68 -26 -52 -32 -55 -83 -35 -10 3 -17 -3 -21 -20 -5 -19 -13 -26 -32
-26 -42 0 -118 22 -130 38 -7 10 -40 17 -94 22 -62 5 -87 12 -96 25 -17 23
-112 63 -188 80 -68 16 -116 34 -116 45 0 5 -17 12 -37 17 l-38 9 0 77 c1 63
5 80 22 99 11 13 34 47 49 76 55 103 63 116 77 124 8 4 20 22 28 40 7 18 23
41 35 50 12 10 29 33 38 53 l17 35 477 0 477 0 35 -81z m720 72 c0 -13 -83
-122 -111 -147 -13 -11 -42 -31 -63 -43 -34 -19 -48 -22 -98 -16 -48 6 -69 15
-118 52 -57 43 -121 109 -141 146 -9 16 6 17 261 17 151 0 270 -4 270 -9z
m-3660 -396 c7 -8 19 -15 26 -15 43 0 110 -68 132 -133 15 -45 17 -92 17 -342
0 -276 -1 -292 -22 -335 -28 -59 -98 -120 -138 -120 -8 0 -15 -4 -15 -10 0
-12 -183 -14 -208 -1 -93 46 -98 50 -134 106 -34 54 -47 180 -43 400 5 237 13
302 41 346 27 44 83 89 110 89 10 0 28 7 38 15 28 21 179 21 196 0z m1442
-116 c-17 -52 -47 -141 -67 -199 -37 -107 -39 -127 -14 -205 5 -16 20 -64 33
-105 13 -41 28 -93 35 -115 6 -22 22 -74 35 -115 17 -53 20 -77 12 -82 -20
-13 -222 -9 -234 5 -6 6 -17 37 -26 67 -42 150 -62 210 -67 210 -10 0 -16 -78
-14 -183 2 -116 11 -109 -145 -105 l-105 3 0 460 0 460 122 3 121 3 7 -31 c4
-17 6 -52 5 -78 -4 -81 0 -152 8 -152 4 0 16 26 27 58 10 31 21 62 24 67 3 6
15 37 27 70 l21 60 104 5 c57 3 108 2 112 -1 5 -4 -5 -49 -21 -100z m-2588 70
c3 -17 6 -61 6 -98 0 -36 7 -129 15 -206 8 -77 15 -146 15 -154 0 -8 3 -11 7
-7 4 4 11 42 14 84 4 42 15 131 24 197 8 66 19 142 22 168 l6 48 121 -3 121
-3 6 -85 c9 -130 30 -343 34 -357 2 -7 9 -13 14 -13 10 0 13 17 31 195 6 61
16 145 22 188 l11 77 120 0 119 0 -5 -52 c-2 -29 -12 -116 -21 -193 -9 -77
-21 -176 -26 -220 -6 -44 -14 -114 -20 -155 -5 -41 -15 -120 -21 -175 -6 -55
-15 -108 -20 -117 -9 -16 -26 -18 -142 -18 -73 0 -138 4 -144 8 -7 4 -17 39
-23 77 -6 39 -15 97 -21 130 -13 80 -28 186 -29 205 0 31 -18 -7 -23 -50 -3
-25 -13 -92 -22 -150 -9 -58 -19 -127 -22 -155 -3 -27 -11 -53 -17 -57 -6 -4
-71 -8 -144 -8 -129 0 -133 1 -141 23 -8 21 -23 124 -41 287 -4 41 -16 131
-25 200 -17 134 -30 244 -41 353 l-7 67 120 0 121 0 6 -31z m1801 21 c3 -5 16
-10 29 -10 23 0 74 -47 97 -90 9 -17 13 -65 14 -147 l0 -122 -34 -30 c-19 -17
-43 -31 -53 -31 -10 0 -18 -4 -18 -10 0 -5 8 -10 18 -10 30 0 79 -56 86 -97 3
-21 6 -111 6 -199 0 -138 -2 -163 -16 -168 -22 -9 -197 -7 -211 2 -8 5 -12 61
-12 195 1 190 -4 217 -37 217 -11 0 -14 -38 -14 -205 0 -240 16 -218 -149
-213 l-104 3 1 400 c1 220 2 428 2 463 l0 62 194 0 c119 0 197 -4 201 -10z
m3545 -21 c35 -11 71 -26 80 -33 8 -7 32 -19 52 -25 38 -12 66 -37 54 -48 -8
-8 34 -53 50 -53 6 0 18 -7 25 -16 7 -9 23 -20 36 -25 12 -4 30 -21 39 -36 26
-41 55 -63 87 -63 28 0 32 -6 21 -35 -6 -15 -37 -17 -214 -15 -26 0 -55 6 -67
13 -6 4 -18 4 -27 1 -9 -3 -22 -1 -30 5 -11 9 -15 7 -19 -9 -8 -30 -33 -24
-63 15 -22 29 -33 35 -65 35 -31 0 -47 8 -81 40 -24 22 -55 44 -69 50 -40 17
-53 50 -46 116 7 65 14 74 65 90 56 18 100 16 172 -7z m-1115 -221 c18 -8 25
-18 23 -32 -3 -28 9 -46 33 -46 12 0 19 -7 19 -20 0 -11 -1 -20 -2 -21 -2 0
-41 -3 -88 -5 -47 -3 -86 -9 -88 -14 -2 -6 -19 -17 -38 -26 -44 -21 -64 -8
-46 31 14 30 61 36 63 8 1 -10 4 -4 8 12 6 26 3 32 -19 41 l-25 10 30 19 c17
11 33 23 36 28 3 4 19 12 35 17 16 4 30 9 31 9 1 1 14 -4 28 -11z m-947 -490
c2 -29 11 -43 35 -60 18 -12 35 -27 39 -32 8 -13 -19 -33 -58 -42 -37 -9 -54
-22 -54 -44 0 -9 -9 -25 -21 -36 -17 -16 -22 -16 -29 -4 -6 8 -10 17 -10 20 0
3 -11 18 -25 33 -18 19 -36 27 -60 27 -45 0 -51 13 -21 52 14 19 26 50 28 73
l3 40 57 0 c31 0 60 4 64 8 5 4 17 7 29 5 15 -2 21 -12 23 -40z m-1956 -203
c-2 -55 12 -58 283 -63 132 -3 254 -5 270 -5 17 -1 52 3 78 7 44 8 49 7 54
-13 5 -19 7 -20 17 -5 10 13 32 16 130 15 66 -1 123 -4 128 -7 5 -3 16 -3 25
0 12 5 13 9 4 20 -8 9 -8 16 -2 20 5 4 20 -7 32 -23 20 -27 24 -28 34 -14 13
17 65 12 65 -7 0 -6 9 -19 20 -30 17 -17 21 -18 26 -5 4 8 18 15 34 15 20 0
27 5 26 18 -2 27 38 22 42 -5 3 -18 -2 -23 -19 -23 -12 0 -20 -3 -16 -6 13
-13 76 7 82 26 4 11 13 20 20 20 8 0 20 10 26 23 41 79 99 89 99 16 0 -23 16
-25 28 -2 9 15 13 15 56 -5 25 -12 49 -22 53 -22 13 -1 53 -38 53 -49 0 -7 9
-9 23 -6 15 4 28 1 36 -9 8 -9 18 -16 24 -16 15 0 67 -51 67 -66 0 -6 -18 -23
-40 -38 -22 -14 -40 -33 -40 -41 0 -8 -7 -15 -15 -15 -8 0 -15 6 -15 13 0 6
-3 21 -6 32 -3 14 2 23 18 30 29 13 34 38 12 60 -16 16 -18 15 -36 -21 -10
-21 -21 -56 -25 -78 -5 -33 -3 -41 18 -57 13 -10 34 -19 45 -19 26 0 46 -21
36 -37 -4 -6 -19 -14 -34 -18 -30 -8 -42 -26 -43 -67 -1 -22 4 -28 21 -28 14
0 25 -8 29 -19 3 -11 35 -38 70 -61 36 -23 65 -46 65 -51 0 -5 12 -15 28 -23
15 -8 36 -29 47 -46 11 -17 40 -43 65 -58 25 -15 52 -35 60 -44 8 -10 30 -23
48 -28 29 -8 37 -6 58 15 13 13 24 28 24 34 0 5 9 13 20 16 14 4 20 15 20 36
0 16 -4 29 -10 29 -12 0 -13 59 -2 77 5 8 21 5 57 -12 46 -22 51 -23 73 -9 13
8 33 14 45 12 18 -2 24 -13 31 -55 7 -39 15 -55 33 -64 14 -7 27 -26 30 -42 5
-26 81 -97 104 -97 4 0 11 -9 14 -21 4 -11 23 -34 42 -52 19 -18 51 -57 71
-87 20 -30 46 -68 59 -83 13 -16 23 -35 23 -44 0 -8 29 -50 64 -92 35 -43 69
-87 77 -98 7 -12 33 -31 58 -43 92 -45 139 -81 175 -135 20 -30 36 -59 36 -65
0 -5 4 -10 10 -10 9 0 77 -96 125 -176 21 -35 30 -49 70 -104 14 -19 32 -49
40 -67 8 -17 20 -35 26 -39 6 -3 22 -30 35 -59 12 -29 28 -56 34 -60 5 -3 19
-24 31 -46 11 -22 29 -49 39 -59 11 -11 20 -26 20 -34 0 -7 6 -19 14 -25 7 -6
27 -40 44 -74 18 -35 45 -77 60 -94 16 -16 34 -39 40 -49 10 -17 14 -17 33 -6
26 17 38 3 31 -34 -4 -20 -7 -22 -18 -13 -21 18 -30 2 -11 -19 10 -10 17 -28
17 -39 0 -24 32 -55 51 -51 15 3 33 36 30 55 -1 6 3 14 9 18 14 9 13 -28 -1
-42 -7 -7 -13 -39 -15 -72 -3 -54 -2 -61 15 -61 10 0 21 9 24 20 3 13 14 20
30 20 42 0 40 -18 -3 -40 -29 -15 -40 -27 -40 -44 0 -15 -34 -58 -107 -135
-237 -247 -382 -391 -396 -391 -19 0 -33 32 -56 128 -38 161 -128 256 -252
264 -71 4 -119 -61 -119 -163 0 -54 6 -71 60 -172 42 -80 60 -126 62 -157 l3
-45 -142 0 c-78 -1 -145 -4 -149 -8 -14 -13 66 -37 128 -38 35 -1 89 -4 122
-8 l58 -6 25 -69 c14 -38 21 -72 16 -77 -8 -8 -399 7 -414 16 -9 6 -36 -36
-45 -69 -3 -14 -12 -26 -19 -26 -10 0 -12 -10 -8 -35 3 -20 1 -41 -6 -49 -13
-16 -5 -158 10 -188 15 -29 -7 -29 -88 -1 -117 41 -266 36 -320 -12 -6 -5 -30
-23 -53 -40 -96 -69 -117 -199 -59 -359 17 -48 41 -101 54 -120 13 -19 26 -43
29 -54 4 -11 39 -69 79 -128 80 -122 97 -154 97 -189 0 -18 4 -23 15 -19 19 8
19 -10 0 -26 -8 -7 -15 -25 -15 -41 0 -16 -4 -29 -8 -29 -4 0 -16 -15 -27 -32
-21 -37 -110 -128 -125 -128 -12 0 -33 -78 -26 -96 3 -7 -1 -32 -7 -55 l-13
-43 -33 52 c-27 43 -40 54 -74 62 -23 6 -51 15 -62 20 -64 29 -248 18 -325
-19 -55 -26 -52 -26 -102 5 -38 24 -44 25 -81 14 -26 -8 -101 -11 -221 -9
-100 2 -186 0 -192 -4 -8 -4 -9 -21 -3 -53 14 -75 1 -81 -56 -24 -27 28 -57
50 -67 50 -9 0 -19 4 -22 9 -3 5 -47 12 -98 16 -51 4 -100 12 -108 18 -11 6
-55 7 -133 0 -103 -8 -120 -13 -143 -34 -24 -22 -26 -23 -35 -6 -8 14 -18 16
-46 11 -27 -5 -41 -2 -63 15 -26 18 -43 21 -143 21 -63 0 -129 -5 -147 -12
-31 -10 -35 -9 -61 19 -15 17 -31 37 -35 45 -5 8 -23 18 -41 21 -26 5 -31 3
-26 -8 3 -8 0 -15 -7 -15 -7 0 -28 -7 -47 -17 -27 -13 -37 -13 -43 -4 -5 9
-10 9 -14 3 -3 -6 -15 -8 -26 -5 -13 3 -22 -1 -26 -11 -6 -15 -7 -15 -19 1
-11 15 -15 16 -36 1 -22 -14 -26 -13 -49 9 -13 12 -37 23 -52 23 -15 0 -30 4
-33 10 -3 5 -22 -6 -42 -25 -20 -19 -40 -35 -44 -35 -26 0 -128 -59 -158 -92
-20 -21 -41 -38 -47 -38 -14 0 -264 255 -264 269 0 17 -17 13 -24 -5 -8 -20
21 -68 68 -113 19 -19 33 -38 31 -42 -3 -4 -99 -5 -213 -2 -240 6 -259 2 -264
-52 l-3 -36 -35 26 c-53 41 -76 48 -190 59 l-105 11 -3 98 c-3 92 -1 99 18
104 21 6 29 26 8 21 -17 -3 -78 30 -78 42 0 6 -7 10 -15 10 -21 0 -83 65 -100
106 -13 32 -13 37 0 51 8 8 15 27 15 43 0 33 40 108 55 103 13 -4 35 96 23
103 -4 3 -8 23 -8 46 0 35 -2 39 -15 28 -13 -11 -15 -8 -15 14 0 15 -11 39
-25 54 -14 15 -25 34 -25 44 0 27 -11 48 -27 48 -7 0 -47 -18 -87 -40 -190
-104 -304 -107 -399 -8 -27 27 -47 55 -44 61 2 7 30 21 63 33 55 19 61 20 87
5 25 -14 29 -14 37 -1 19 30 11 161 -15 234 -27 78 -81 162 -106 169 -21 6
-34 -20 -19 -38 15 -18 -4 -30 -78 -50 -78 -22 -87 -15 -86 63 2 118 73 193
241 253 32 11 67 24 78 29 35 16 156 47 256 65 123 22 123 22 107 71 l-13 39
-150 12 c-82 7 -199 19 -260 27 -111 16 -325 30 -640 42 -93 3 -176 11 -182
16 -17 14 -16 49 0 72 13 17 22 18 148 7 74 -6 292 -18 484 -26 193 -8 395
-20 451 -26 110 -13 148 -8 123 16 -20 20 -236 42 -494 50 -432 12 -675 29
-675 47 0 6 22 40 49 77 58 79 72 106 97 188 10 35 22 63 25 63 3 0 4 11 2 24
-6 32 18 82 66 133 75 81 121 166 121 224 0 36 -54 115 -92 135 -46 25 -130
21 -185 -7 -46 -24 -143 -119 -143 -141 0 -7 -14 -29 -29 -48 -29 -34 -30 -34
-49 -16 -12 10 -46 52 -78 94 -53 71 -108 143 -126 167 -67 85 -88 115 -87
126 2 36 121 207 159 232 11 6 20 17 20 24 0 6 8 18 18 25 9 7 25 26 35 41 10
15 40 51 68 79 27 27 49 56 49 63 0 7 4 15 9 17 4 2 27 26 50 53 126 151 182
208 221 226 32 15 64 17 191 15 144 -2 155 0 218 25 61 25 69 26 100 13 40
-17 73 -18 87 -4 6 6 49 11 95 12 131 2 139 1 139 -21 0 -23 22 -31 72 -27 20
2 57 0 83 -4 41 -6 51 -4 76 17 16 14 29 34 29 44 0 30 -26 74 -54 93 -15 9
-26 23 -26 31 0 8 -5 15 -10 15 -15 0 -71 125 -78 172 l-5 42 -25 -55 c-14
-30 -26 -71 -27 -93 -3 -37 -2 -38 26 -32 24 5 29 2 29 -15 0 -13 -4 -18 -12
-13 -6 4 -27 7 -46 6 -31 -1 -34 1 -28 22 14 56 -20 72 -69 34 -29 -23 -65
-34 -65 -20 0 11 118 132 129 132 5 0 12 -10 14 -22 3 -15 5 -11 6 13 1 26 9
43 34 65 17 16 70 78 116 137 46 58 92 109 102 112 11 4 30 21 44 40 17 22 38
35 60 39 19 4 59 18 87 31 29 14 61 25 71 25 10 0 22 11 26 24 6 14 20 25 38
29 16 3 41 17 56 31 15 14 40 29 55 33 15 3 32 14 39 23 6 9 31 22 55 29 24 7
49 18 56 23 22 18 199 110 235 122 11 3 21 15 24 25 6 24 48 40 125 48 34 3
59 11 62 19 3 8 13 14 23 14 16 1 16 2 -2 12 -35 21 -225 -3 -225 -28 0 -10
-15 -14 -61 -14 -54 0 -60 2 -49 15 19 23 5 29 -24 10 -26 -17 -26 -17 -26 8
0 26 -16 37 -56 37 -35 0 -43 29 -13 52 14 12 25 16 27 9 2 -6 13 -11 25 -11
20 1 20 2 5 13 -15 12 -15 14 1 24 12 8 22 8 28 2 6 -6 14 -4 23 6 17 20 60
19 110 -2 29 -13 38 -22 35 -35 -8 -24 24 -31 79 -17 25 6 55 9 67 6 12 -3 22
0 26 9 3 8 15 14 28 14 15 0 25 7 28 22 5 17 9 19 21 9 10 -8 16 -9 21 -1 5 8
11 8 21 -1 8 -6 16 -10 17 -8 2 2 11 17 21 32 13 22 20 26 31 17 7 -6 11 -20
8 -30 -4 -14 0 -20 11 -20 20 0 20 17 1 54 -18 35 -12 45 13 23 10 -10 25 -17
32 -17 9 0 7 -5 -6 -16 -18 -14 -17 -15 19 -9 20 3 37 2 37 -2 0 -16 -15 -30
-37 -37 -13 -4 -23 -12 -23 -17 0 -5 -10 -9 -22 -9 -16 0 -19 -3 -11 -11 7 -7
18 -9 25 -5 22 10 52 30 63 42 27 30 99 15 80 -16 -6 -10 -10 -9 -17 4 -11 20
-28 21 -28 1 0 -8 -9 -15 -20 -15 -11 0 -20 -5 -20 -11 0 -24 184 7 276 46 22
10 43 11 70 4 50 -11 54 -11 54 1 0 6 -11 10 -25 10 -14 0 -25 4 -25 8 0 16
24 32 48 32 21 0 23 -2 11 -16 -12 -14 -11 -16 6 -12 11 2 19 10 17 18 -4 18
9 73 16 66 3 -3 5 -22 4 -41z m-1857 -115 c4 -14 14 -33 23 -43 14 -16 14 -19
-8 -34 -12 -9 -32 -27 -43 -40 -20 -23 -21 -23 -41 -4 -12 10 -30 21 -41 23
-17 3 -20 11 -19 57 1 29 6 56 12 60 6 3 33 6 61 6 45 0 51 -2 56 -25z m-775
-426 c0 -21 8 -47 20 -61 28 -36 25 -51 -15 -70 -21 -10 -38 -28 -44 -45 -12
-34 -21 -35 -51 -3 -16 17 -34 25 -57 25 -40 0 -53 22 -29 49 11 12 15 33 14
67 l-3 49 45 -3 c29 -1 53 3 65 12 36 27 55 20 55 -20z m-560 -730 c0 -7 9
-18 20 -24 27 -14 25 -29 -9 -68 -26 -30 -30 -32 -67 -24 -29 6 -39 13 -37 27
1 10 -3 29 -8 43 -11 28 3 52 31 52 10 0 23 7 30 15 10 12 16 13 26 4 8 -6 14
-17 14 -25z m-655 -216 c7 -6 1 -17 -17 -31 -15 -13 -30 -37 -34 -54 -4 -19
-14 -35 -25 -38 -11 -4 -23 -22 -29 -45 -6 -22 -22 -53 -36 -70 -15 -17 -28
-45 -29 -63 -2 -18 -3 -37 -4 -44 -1 -6 -9 -9 -19 -6 -13 3 -22 -7 -36 -38
-14 -30 -16 -44 -8 -47 15 -5 16 -42 2 -42 -5 0 -10 8 -11 18 0 13 -2 12 -9
-5 -7 -18 -17 -23 -46 -23 -29 0 -44 -8 -75 -39 -37 -37 -39 -41 -39 -105 l0
-66 -40 -20 c-22 -11 -47 -31 -56 -45 -32 -49 6 -166 99 -305 43 -64 218 -300
244 -330 12 -14 32 -39 45 -57 13 -17 65 -80 116 -138 50 -59 92 -111 92 -117
0 -11 -62 -9 -530 17 -373 21 -608 35 -667 41 l-53 5 0 836 0 836 578 -8 c355
-4 581 -11 587 -17z m7543 -175 c29 -17 31 -17 50 1 11 9 31 16 44 14 19 -2
23 -10 26 -43 3 -42 16 -78 40 -107 13 -15 12 -21 -3 -44 -14 -22 -15 -30 -4
-51 11 -20 10 -26 -4 -40 -24 -24 -41 -5 -28 29 19 51 -25 53 -63 3 -15 -19
-33 -35 -41 -35 -8 0 -26 18 -39 39 -17 27 -35 41 -56 46 -42 9 -48 31 -22 76
12 21 22 53 22 71 0 57 26 71 78 41z m-7498 -38 c19 -14 45 -25 58 -25 19 0
23 -4 17 -17 -15 -34 -18 -75 -6 -82 20 -13 -26 -51 -63 -51 -49 0 -96 19 -89
36 3 8 -1 14 -10 14 -9 0 -18 9 -22 20 -7 21 10 60 25 60 6 0 10 6 10 13 0 15
28 57 39 57 4 0 22 -11 41 -25z m-49 -244 c55 -36 137 -116 207 -201 95 -117
276 -347 332 -421 30 -40 70 -89 88 -108 l32 -36 38 43 c21 23 51 68 67 98 31
60 77 102 139 128 58 24 90 20 131 -15 61 -54 45 -122 -60 -246 -53 -62 -95
-150 -95 -201 -1 -61 -49 -164 -121 -259 l-73 -95 -8 -136 c-4 -76 -12 -209
-18 -297 -6 -88 -10 -214 -10 -280 0 -104 3 -125 21 -155 28 -46 35 -50 99
-50 85 0 449 78 580 125 25 9 63 20 85 25 22 5 50 12 62 15 18 6 25 0 41 -37
23 -49 44 -151 36 -172 -6 -16 -17 -20 -174 -70 -63 -19 -144 -45 -180 -56
-152 -49 -539 -141 -615 -146 -69 -5 -84 -3 -112 15 -69 43 -67 32 -73 578 -3
270 -7 493 -10 495 -3 2 -23 15 -45 30 -104 67 -322 309 -587 653 -83 107
-185 265 -215 334 -27 60 -24 104 7 121 29 15 41 12 95 -22 51 -33 130 -115
285 -291 81 -92 120 -118 120 -79 0 17 -55 82 -235 277 -111 121 -155 176
-173 218 -35 82 10 143 83 113 43 -18 184 -158 274 -271 126 -158 167 -195
185 -166 7 10 -83 125 -210 270 -104 119 -144 182 -144 229 0 11 9 31 21 46
28 35 72 34 130 -3z m8175 -806 c13 -8 24 -21 24 -29 0 -7 -30 -36 -68 -63
-100 -75 -272 -269 -272 -307 0 -34 30 -12 123 94 157 178 264 249 353 235 56
-8 84 -34 84 -79 0 -45 -26 -75 -113 -133 -75 -50 -262 -231 -273 -265 -3 -11
-1 -25 5 -31 9 -9 32 11 93 77 104 113 228 206 273 206 47 0 64 -8 80 -40 26
-51 6 -86 -128 -221 -144 -144 -297 -313 -297 -327 0 -5 -7 -16 -17 -23 -9 -8
-48 -57 -87 -109 -96 -129 -222 -256 -263 -264 -47 -10 -80 -50 -93 -109 -10
-44 -32 -207 -70 -512 -18 -144 -57 -359 -81 -450 -39 -150 -89 -235 -137
-235 -78 0 -201 97 -434 341 -87 90 -178 180 -202 199 -27 21 -45 43 -46 56 0
25 73 105 118 128 37 19 43 17 103 -39 65 -60 246 -203 279 -220 84 -43 105
-4 130 236 17 170 32 737 19 760 -6 11 -23 32 -38 47 -42 41 -131 176 -152
232 -10 28 -19 63 -19 79 0 47 -46 213 -71 256 -53 92 -69 130 -69 166 0 52
17 85 50 99 23 10 34 8 66 -8 77 -40 120 -107 148 -231 20 -93 54 -141 98
-141 45 0 90 35 198 152 188 204 430 430 502 469 56 31 141 32 184 4z m-8941
-455 c121 -9 248 -16 730 -40 l189 -10 48 -47 c69 -68 65 -75 -34 -68 -46 4
-144 10 -218 15 -74 4 -250 18 -390 29 -140 11 -345 28 -455 36 -279 22 -265
19 -265 68 l0 40 133 -7 c72 -4 190 -11 262 -16z m7219 -871 c107 -34 235
-117 382 -247 151 -133 198 -226 161 -315 -21 -48 -41 -47 -94 4 -47 44 -50
51 -28 69 11 9 12 16 5 25 -13 16 -87 3 -146 -25 -95 -46 -204 -207 -204 -300
0 -58 26 -53 43 8 9 29 21 48 31 50 11 3 47 -26 98 -77 91 -91 92 -95 9 -132
-149 -66 -244 -17 -387 200 -93 140 -134 206 -173 281 -120 231 -106 375 44
453 77 40 149 42 259 6z m-2926 -1238 c81 -40 101 -55 129 -93 47 -65 56 -142
51 -438 -4 -208 -7 -252 -23 -290 -23 -56 -75 -108 -114 -116 -17 -4 -36 -13
-42 -20 -16 -20 -177 -19 -203 1 -11 8 -28 15 -37 15 -26 0 -76 46 -107 99
l-27 46 0 315 c0 347 2 357 65 416 57 54 106 72 203 73 48 1 95 -3 105 -8z
m653 -8 c27 -10 49 -21 49 -25 0 -5 6 -8 14 -8 17 0 63 -56 82 -100 9 -19 18
-77 21 -128 l5 -93 -127 3 -128 3 -3 94 c-2 52 -8 99 -13 104 -18 18 -38 -1
-44 -40 -11 -65 -8 -261 4 -269 7 -4 7 -10 1 -16 -11 -11 -4 -48 9 -48 5 0 9
16 9 35 l0 35 145 0 145 0 0 -240 0 -240 -81 0 c-72 0 -81 2 -86 20 -6 22 -18
26 -28 10 -18 -29 -87 -60 -134 -60 -90 0 -167 49 -214 135 -21 39 -22 50 -21
355 0 345 2 356 61 412 59 56 111 76 202 77 56 1 99 -5 132 -16z m1727 8 c9
-4 40 -19 67 -32 69 -33 95 -85 95 -186 l0 -73 -115 0 -115 0 0 54 c0 58 -18
90 -45 80 -31 -12 -37 -97 -9 -139 10 -15 48 -47 85 -71 130 -83 174 -126 199
-190 26 -70 29 -243 4 -292 -19 -40 -82 -92 -110 -92 -12 0 -27 -7 -34 -15
-10 -11 -36 -15 -111 -15 -56 0 -99 4 -99 10 0 5 -15 12 -34 15 -43 9 -99 54
-121 100 -10 23 -19 73 -22 131 l-6 94 117 0 116 0 2 -42 c1 -24 2 -56 2 -73
1 -33 21 -75 36 -75 24 0 50 45 50 87 0 77 -32 117 -158 198 -40 25 -87 61
-105 79 -89 89 -90 301 -2 389 20 20 49 38 65 42 16 4 32 11 35 16 8 11 189
12 213 0z m623 -8 c27 -10 49 -21 49 -25 0 -5 8 -8 18 -8 42 0 78 -98 81 -218
l1 -33 -117 3 -118 3 -3 62 c-2 42 -7 63 -17 67 -57 21 -76 -83 -27 -147 15
-20 30 -36 35 -37 7 0 87 -49 97 -60 3 -3 23 -18 45 -35 63 -46 72 -57 96
-110 30 -67 34 -252 7 -302 -21 -37 -86 -93 -108 -93 -9 0 -25 -7 -36 -15 -22
-17 -183 -21 -212 -6 -9 6 -39 20 -66 33 -80 37 -122 133 -114 256 l3 47 115
0 115 0 3 -65 c3 -88 8 -107 31 -113 37 -9 54 25 49 97 -5 76 -3 75 -134 167
-120 85 -139 104 -163 155 -24 50 -29 196 -10 255 13 40 76 109 99 109 8 0 26
7 40 14 37 21 181 20 241 -1z m-5517 -9 c14 -5 16 -56 16 -465 l0 -459 -125 0
-125 0 0 459 c0 358 3 460 13 464 18 8 202 8 221 1z m306 -14 c11 -11 20 -26
20 -32 -1 -22 85 -278 93 -278 4 0 7 72 7 160 l0 159 33 6 c17 3 64 5 102 3
l70 -3 3 -455 c1 -250 0 -459 -2 -465 -2 -6 -45 -9 -110 -7 -106 3 -106 3
-112 30 -3 15 -21 77 -39 137 -18 61 -36 123 -40 139 -14 64 -25 -2 -25 -151
l0 -151 -72 -4 c-40 -2 -88 -2 -105 0 l-33 3 0 459 c0 357 3 459 13 463 6 3
49 6 95 6 69 1 85 -2 102 -19z m1008 4 c9 -7 26 -14 38 -14 27 0 82 -58 94
-101 13 -45 13 -274 -1 -322 -19 -70 -66 -98 -179 -106 l-75 -6 -3 -182 -2
-183 -125 0 -125 0 0 459 c0 358 3 461 13 465 6 3 87 4 180 4 121 -1 172 -5
185 -14z m603 0 c6 -8 18 -14 26 -14 27 0 75 -43 94 -84 14 -31 19 -65 19
-144 0 -119 -11 -148 -64 -177 -40 -22 -46 -35 -17 -35 10 0 33 -16 50 -35
l31 -36 0 -193 0 -194 -54 -4 c-30 -1 -82 -1 -115 0 l-61 4 0 185 c0 191 -6
223 -40 223 -19 0 -20 -8 -20 -205 l0 -205 -125 0 -125 0 0 458 c0 252 3 462
7 465 3 4 91 6 194 6 149 0 190 -4 200 -15z m1907 2 c15 -7 39 -19 54 -26 15
-7 40 -31 55 -54 27 -39 28 -47 28 -157 0 -134 -9 -159 -66 -187 -38 -19 -41
-32 -8 -32 10 0 31 -17 46 -37 l28 -36 3 -194 3 -193 -115 0 -116 0 0 178 c0
184 -8 223 -43 230 -16 3 -17 -13 -17 -202 l0 -206 -125 0 -125 0 0 458 c0
252 3 462 7 465 3 4 87 7 186 7 132 0 186 -4 205 -14z m626 8 c13 -5 16 -23
16 -95 l0 -89 -75 0 c-53 0 -76 -4 -82 -14 -4 -8 -6 -44 -5 -80 l4 -66 61 0
c34 0 68 -4 75 -9 9 -5 12 -31 10 -92 l-3 -84 -74 -5 -74 -5 2 -95 c1 -52 5
-98 9 -102 4 -4 43 -8 87 -10 l80 -3 3 -79 c2 -44 -1 -83 -5 -87 -8 -8 -411
-14 -419 -7 -9 10 -9 909 0 918 11 11 363 14 390 4z m-6481 -308 c40 -8 158
-20 262 -26 105 -6 244 -20 310 -31 66 -11 161 -27 210 -34 50 -8 117 -19 150
-25 33 -5 102 -10 154 -10 51 0 141 -7 200 -15 117 -17 210 -29 348 -46 51 -7
97 -17 102 -23 5 -6 11 -108 13 -226 2 -118 7 -221 11 -227 10 -17 604 -18
623 -2 9 7 19 7 33 0 11 -6 76 -11 149 -11 108 0 132 3 143 17 11 12 14 58 16
181 1 125 5 167 15 173 18 12 151 0 160 -14 9 -14 9 -24 11 -202 1 -71 6 -136
10 -142 6 -10 50 -13 162 -13 142 0 155 2 165 19 5 11 10 82 10 159 0 107 3
142 14 151 17 15 203 3 214 -13 4 -6 9 -78 12 -161 l5 -150 306 -3 c345 -3
331 -6 333 73 1 25 3 45 7 45 3 0 30 -24 60 -52 70 -68 129 -90 243 -90 46 1
93 5 103 10 10 5 40 20 67 33 47 23 98 78 117 127 5 12 11 22 14 22 3 0 21
-24 40 -54 39 -62 70 -88 133 -116 50 -22 149 -27 200 -9 20 7 260 11 724 12
l693 2 10 23 c12 27 28 28 63 4 66 -45 186 -67 277 -52 86 15 109 22 156 52
59 36 111 37 160 4 41 -28 128 -56 174 -56 17 0 40 -6 50 -14 18 -13 18 -16
-13 -97 -17 -46 -37 -106 -46 -134 -8 -27 -35 -106 -60 -174 -25 -69 -46 -133
-46 -143 0 -17 -137 -18 -3705 -18 l-3705 0 0 645 0 645 35 0 c20 0 68 -6 108
-14z"/>
<path d="M4725 10968 c-10 -68 -1 -586 10 -597 6 -6 16 -7 25 -1 13 8 16 54
18 288 3 284 -2 345 -30 350 -13 2 -18 -8 -23 -40z"/>
<path d="M6522 10014 c-11 -12 -9 -14 8 -14 16 0 20 -6 20 -29 0 -41 -19 -49
-26 -12 -5 25 -12 31 -33 31 -14 1 -50 2 -79 3 -34 2 -56 -2 -61 -10 -3 -7
-16 -14 -28 -16 -27 -4 -43 -17 -21 -17 8 0 27 -11 42 -25 15 -14 34 -25 42
-25 9 0 22 -7 30 -15 9 -8 26 -15 39 -15 13 0 30 -3 38 -6 10 -4 15 1 14 13
-2 13 6 19 31 21 17 2 32 8 32 13 0 5 16 19 35 30 19 12 35 27 35 34 0 13 -50
35 -81 35 -9 0 -19 4 -21 9 -1 5 -9 3 -16 -5z"/>
<path d="M5040 9730 c-8 -5 -50 -10 -92 -10 -42 0 -87 -4 -100 -9 -13 -5 -57
-17 -98 -26 -41 -10 -80 -22 -85 -26 -6 -4 -17 -4 -25 1 -22 14 -28 12 -46
-15 -16 -24 -15 -27 11 -65 15 -21 24 -43 21 -48 -3 -4 -23 -14 -45 -22 -44
-14 -59 -36 -38 -54 8 -6 40 -31 71 -55 44 -34 55 -48 50 -63 -7 -24 12 -48
39 -48 11 0 29 -8 39 -17 48 -43 194 -58 266 -27 56 25 246 31 320 11 33 -10
105 -17 172 -18 101 -2 121 0 155 19 22 11 59 30 83 42 23 11 42 25 42 29 0 4
-7 23 -16 41 -15 29 -15 35 -1 65 15 31 14 34 -8 67 -31 45 -19 71 29 62 29
-5 36 -2 55 25 16 22 30 31 50 31 34 0 48 -15 53 -55 2 -18 11 -34 24 -40 58
-28 70 -59 30 -75 -53 -20 -42 -49 26 -69 24 -7 57 -19 73 -26 66 -28 81 -31
110 -24 17 4 51 7 77 8 26 0 49 5 52 9 3 5 37 21 76 36 115 46 116 51 11 102
-49 24 -101 44 -114 44 -14 0 -30 6 -36 13 -6 8 -30 22 -53 32 -24 9 -52 21
-63 26 -54 23 -148 49 -176 49 -17 0 -42 9 -56 20 -15 11 -41 20 -60 20 -19 0
-49 7 -66 15 -42 19 -144 25 -472 31 -169 2 -276 0 -285 -6z"/>
<path d="M3780 8955 c-13 -14 -32 -25 -42 -25 -9 0 -25 -11 -33 -24 -10 -14
-30 -27 -51 -30 -20 -4 -41 -17 -50 -31 -9 -14 -24 -25 -34 -25 -10 0 -24 -10
-33 -23 -19 -30 -21 -141 -3 -176 8 -14 17 -33 19 -41 3 -9 21 -24 41 -35 30
-16 40 -18 56 -7 11 6 34 12 51 12 22 0 32 5 36 20 3 13 14 20 29 20 17 0 31
12 49 40 14 22 25 43 25 47 0 5 10 26 22 48 31 55 33 201 4 234 -25 28 -57 27
-86 -4z"/>
<path d="M4726 8958 c-9 -12 -16 -34 -17 -48 0 -14 -6 -41 -13 -60 l-13 -35
-109 -6 c-60 -4 -130 -10 -155 -14 l-45 -7 -33 66 c-33 68 -61 86 -61 41 0
-14 9 -42 20 -62 11 -21 20 -44 20 -52 0 -16 -29 -40 -48 -41 -24 0 -157 -97
-214 -156 -69 -71 -102 -117 -144 -205 -59 -122 -69 -170 -68 -319 1 -133 6
-160 48 -275 8 -22 12 -43 10 -47 -3 -4 -24 -16 -47 -26 -68 -30 -127 -113
-127 -180 0 -120 133 -259 345 -360 39 -18 82 -38 97 -43 57 -22 44 -38 -76
-94 -63 -30 -126 -57 -140 -61 -49 -12 -41 -44 17 -69 21 -9 66 -28 100 -44
34 -15 116 -44 182 -65 188 -59 185 -57 185 -113 0 -26 -7 -75 -16 -110 -11
-44 -15 -95 -12 -166 3 -96 6 -109 41 -180 47 -95 120 -163 232 -217 121 -57
165 -65 370 -64 149 1 196 5 270 23 357 87 619 256 860 555 99 124 239 365
290 501 34 89 33 100 -14 119 -34 13 -40 19 -38 43 2 26 -1 28 -33 28 -34 0
-35 -1 -35 -38 0 -32 -6 -44 -35 -67 -19 -16 -38 -30 -41 -30 -3 0 -43 -25
-88 -55 -116 -78 -313 -169 -455 -212 -67 -19 -130 -39 -141 -43 -24 -10 -101
-24 -241 -45 -225 -34 -607 -13 -824 45 -19 5 -89 23 -155 40 -104 26 -276 87
-329 117 -21 12 -14 18 64 58 30 16 78 44 107 62 28 18 60 33 70 33 10 0 81
-14 158 -30 153 -33 259 -49 377 -57 66 -4 79 -3 84 11 9 23 3 27 -48 32 -46
4 -154 18 -278 35 -325 45 -653 197 -761 353 -29 42 -34 58 -34 105 0 76 36
122 113 146 50 16 58 16 122 1 37 -9 91 -28 120 -42 66 -32 240 -132 260 -150
57 -50 403 -185 514 -200 43 -6 48 -5 44 12 -2 11 -20 25 -45 34 -23 8 -44 18
-47 21 -3 3 19 19 50 34 87 44 165 98 209 143 22 23 47 42 56 42 9 0 30 -22
48 -49 46 -71 171 -184 254 -229 131 -72 184 -85 357 -91 153 -6 154 -6 160
-30 3 -14 10 -26 16 -28 7 -2 13 31 17 92 5 88 8 100 39 142 45 63 117 133
137 133 10 0 21 4 27 9 5 4 29 13 54 19 50 12 165 1 183 -17 6 -6 22 -11 35
-11 l23 0 -27 23 -27 24 30 74 c45 109 61 173 69 274 16 227 -58 431 -218 601
l-39 41 50 74 c54 78 63 109 33 109 -11 0 -32 -23 -55 -59 -21 -32 -47 -67
-57 -76 -18 -16 -20 -16 -49 4 -16 12 -33 21 -37 21 -4 0 -15 6 -23 14 -15 13
-84 38 -181 66 -25 8 -49 17 -53 20 -5 4 -1 39 9 78 9 38 14 77 11 86 -12 29
-36 4 -52 -52 -32 -118 -18 -106 -135 -118 -58 -6 -131 -19 -163 -29 -71 -22
-73 -20 -112 83 -20 55 -31 72 -46 72 -27 0 -24 -22 13 -114 l31 -79 -29 -23
c-16 -13 -33 -24 -39 -24 -5 0 -44 -32 -87 -70 -42 -39 -83 -70 -91 -70 -8 0
-23 13 -34 29 -10 16 -46 59 -80 95 -35 36 -63 70 -63 75 0 5 20 31 45 59 82
91 44 117 -40 27 -29 -30 -57 -55 -63 -55 -6 0 -37 16 -69 35 -32 19 -64 35
-71 35 -7 0 -20 4 -30 9 -9 5 -37 15 -61 22 -49 15 -59 29 -43 64 6 13 14 47
18 75 5 42 4 50 -9 50 -9 0 -23 -10 -31 -22z m65 -217 c116 -33 220 -92 308
-175 55 -52 121 -144 121 -169 0 -8 -18 -48 -39 -88 -95 -181 -112 -399 -45
-596 13 -39 24 -74 24 -78 0 -15 -100 -111 -147 -141 -114 -73 -241 -121 -294
-110 -42 8 -262 116 -339 167 -103 67 -258 144 -341 169 -84 24 -88 29 -126
151 -32 101 -21 367 18 439 5 8 18 37 30 64 66 152 231 295 412 357 121 42
293 46 418 10z m1199 -85 c192 -41 366 -178 463 -365 60 -116 77 -190 77 -339
0 -109 -3 -133 -29 -211 -16 -49 -42 -108 -57 -130 l-27 -41 -66 0 c-49 -1
-79 -7 -116 -25 -27 -14 -53 -25 -57 -25 -4 0 -30 -23 -58 -51 -48 -48 -84
-105 -110 -176 -15 -40 -42 -47 -180 -46 -152 2 -258 36 -395 130 -109 73
-186 175 -243 316 -43 107 -56 190 -49 312 14 239 139 448 342 573 44 27 161
72 220 85 45 10 225 6 285 -7z m-1391 -1950 c39 -8 100 -18 134 -22 105 -11
101 -3 93 -177 -4 -82 -9 -154 -13 -160 -3 -6 -33 -7 -77 -3 -39 4 -109 11
-155 15 -52 5 -87 13 -93 22 -14 21 -4 315 12 334 7 8 15 13 19 10 4 -2 40
-11 80 -19z m828 -200 c-10 -204 -16 -232 -48 -229 -13 1 -94 7 -179 14 -85 6
-161 16 -168 22 -10 8 -12 43 -7 156 3 80 8 155 10 167 4 20 13 21 147 28 79
4 163 11 188 15 31 5 48 4 55 -4 7 -8 7 -67 2 -169z m501 -42 c105 -30 105
-27 21 -106 -86 -81 -232 -180 -345 -233 -85 -40 -244 -91 -334 -107 -86 -16
-349 -21 -400 -8 -161 40 -161 37 -44 153 87 86 113 101 158 93 47 -9 354 -35
414 -36 59 0 64 6 77 93 7 42 11 48 69 85 58 38 117 65 161 75 48 11 171 6
223 -9z"/>
<path d="M4465 8419 c-123 -44 -201 -112 -230 -199 -53 -158 8 -311 155 -389
84 -45 196 -54 283 -23 94 33 151 82 192 164 47 94 49 174 6 263 -36 77 -75
116 -157 156 -53 26 -80 33 -142 35 -42 2 -90 -1 -107 -7z m176 -53 c51 -16
114 -53 141 -82 9 -11 28 -42 42 -70 64 -128 -1 -286 -144 -349 -32 -15 -66
-20 -125 -20 -69 0 -88 4 -139 30 -103 52 -150 129 -148 244 2 173 196 301
373 247z"/>
<path d="M4493 8261 c-57 -27 -93 -82 -93 -144 0 -54 10 -79 49 -120 39 -43
78 -60 120 -52 64 11 90 26 121 73 94 142 -45 314 -197 243z"/>
<path d="M5575 8326 c-91 -22 -178 -96 -218 -186 -32 -71 -29 -188 7 -262 29
-60 83 -115 151 -151 34 -19 56 -22 140 -22 84 1 107 4 143 23 63 34 120 89
150 146 22 44 26 64 26 141 0 108 -19 158 -85 223 -53 52 -96 76 -167 91 -64
13 -82 13 -147 -3z m177 -62 c241 -92 233 -420 -11 -500 -186 -60 -379 88
-357 274 14 123 80 197 209 237 61 20 84 18 159 -11z"/>
<path d="M5571 8172 c-57 -28 -93 -82 -94 -139 -1 -141 139 -217 255 -140 49
33 70 81 64 146 -6 64 -27 97 -82 128 -47 27 -97 29 -143 5z"/>
<path d="M6836 8738 c-14 -43 -13 -131 0 -158 42 -84 150 -78 174 10 13 49 5
82 -27 115 -40 39 -87 27 -96 -25 -3 -19 -5 -16 -6 11 -1 46 -35 81 -45 47z"/>
<path d="M3157 8504 c-31 -28 -36 -64 -9 -64 9 0 24 -5 32 -10 12 -7 12 -12 2
-22 -18 -18 -15 -69 7 -92 30 -32 32 -75 4 -77 -10 -1 -4 -5 12 -8 17 -4 38
-4 48 1 21 11 22 53 2 88 -8 14 -14 36 -15 51 0 28 -21 79 -32 79 -5 0 -8 15
-8 34 0 46 -11 50 -43 20z"/>
<path d="M7636 8311 c-4 -5 -2 -12 4 -16 5 -3 10 -17 10 -31 0 -19 -5 -24 -25
-24 -15 0 -25 -6 -25 -15 0 -22 -36 -38 -60 -25 -11 6 -20 17 -20 25 0 19 -29
19 -54 0 -23 -17 -41 -6 -59 35 -10 22 -12 15 -17 -55 -6 -72 -39 -185 -61
-209 -12 -13 -11 -66 0 -66 11 0 65 103 75 143 8 35 38 33 46 -3 9 -37 36 -94
68 -141 32 -46 99 -79 163 -79 35 0 38 3 73 72 39 77 42 101 25 211 -10 59
-19 82 -52 125 -22 28 -43 52 -47 52 -5 0 -15 3 -23 6 -8 3 -18 1 -21 -5z"/>
<path d="M7654 7400 c-12 -5 -33 -24 -47 -42 -62 -81 -52 -222 18 -255 50 -24
85 -6 120 62 24 49 27 63 23 136 -3 66 -7 83 -23 95 -21 16 -59 17 -91 4z"/>
<path d="M7179 6788 c-55 -41 -64 -52 -86 -108 -9 -25 -28 -63 -41 -84 -22
-35 -24 -46 -18 -110 17 -188 55 -284 130 -326 30 -18 47 -21 82 -16 25 3 51
11 60 18 42 35 67 68 94 124 74 150 66 341 -19 469 -50 75 -126 87 -202 33z"/>
<path d="M4390 5902 c0 -10 33 -49 73 -87 96 -92 144 -110 271 -102 92 5 182
23 202 39 7 5 41 11 78 15 64 6 83 17 50 30 -8 3 -25 1 -37 -5 -12 -6 -38 -13
-57 -16 -19 -3 -66 -13 -105 -22 -199 -46 -286 -25 -407 97 -45 45 -68 62 -68
51z"/>
<path d="M5842 5800 c-12 -11 -26 -20 -33 -20 -6 0 -23 -8 -37 -18 -37 -25
-106 -60 -156 -78 -53 -19 -181 -30 -198 -17 -7 6 -27 13 -44 16 -17 3 -61 20
-97 36 -132 61 -157 69 -157 54 0 -9 179 -96 231 -112 46 -14 230 -14 266 0
15 6 37 15 48 19 51 19 118 54 143 74 15 13 37 26 49 30 24 8 40 36 20 36 -7
0 -23 -9 -35 -20z"/>
<path d="M1464 7711 c-28 -18 -111 -104 -165 -173 -34 -43 -44 -74 -26 -81 19
-7 27 0 78 68 43 58 127 144 141 145 4 0 12 9 17 19 17 31 -9 44 -45 22z"/>
<path d="M1426 7345 c-9 -24 -9 -23 27 -30 55 -13 128 -55 177 -104 47 -47 59
-67 97 -166 11 -28 26 -50 34 -50 50 0 -17 171 -99 254 -81 81 -220 137 -236
96z"/>
<path d="M8900 7021 c0 -11 23 -36 54 -60 56 -43 133 -121 177 -180 26 -35 49
-36 49 -3 -1 30 -83 125 -169 194 -85 70 -111 82 -111 49z"/>
<path d="M8855 6659 c-27 -10 -61 -29 -75 -42 -62 -55 -129 -209 -99 -228 23
-14 33 -5 49 47 32 104 92 170 175 192 35 9 46 16 43 30 -5 24 -35 25 -93 1z"/>
<path d="M4586 4708 c-8 -30 -8 -547 0 -587 4 -20 12 -31 24 -31 26 0 30 43
30 320 0 277 -4 320 -30 320 -10 0 -20 -10 -24 -22z"/>
<path d="M5214 4294 c-7 -57 0 -186 10 -203 12 -18 45 2 55 33 6 17 10 60 9
95 -2 55 -5 65 -25 74 -14 6 -23 19 -23 34 0 46 -19 22 -26 -33z"/>
</g>
</svg>
